<svg width="64" height="64" viewBox="0 0 64 64" fill="none" xmlns="http://www.w3.org/2000/svg">
  <defs>
    <linearGradient id="bg" x1="8" y1="5" x2="56" y2="59" gradientUnits="userSpaceOnUse">
      <stop offset="0" stop-color="#86c6ff"/>
      <stop offset="0.24" stop-color="#1d65bd"/>
      <stop offset="0.62" stop-color="#092b72"/>
      <stop offset="1" stop-color="#03122f"/>
    </linearGradient>
    <linearGradient id="cube" x1="17" y1="11" x2="47" y2="45" gradientUnits="userSpaceOnUse">
      <stop stop-color="#eef8ff"/>
      <stop offset="0.38" stop-color="#4a9dff"/>
      <stop offset="1" stop-color="#09285f"/>
    </linearGradient>
    <linearGradient id="cubeSide" x1="32" y1="13" x2="48" y2="43" gradientUnits="userSpaceOnUse">
      <stop stop-color="#77bcff"/>
      <stop offset="1" stop-color="#06163f"/>
    </linearGradient>
    <filter id="shadow" x="-10" y="-10" width="84" height="84" color-interpolation-filters="sRGB">
      <feDropShadow dx="0" dy="2" stdDeviation="2" flood-color="#010719" flood-opacity="0.65"/>
    </filter>
    <filter id="glow" x="-18" y="-18" width="100" height="100" color-interpolation-filters="sRGB">
      <feGaussianBlur stdDeviation="1.1" result="blur"/>
      <feColorMatrix in="blur" type="matrix" values="0.22 0 0 0 0.14  0 0.55 0 0 0.45  0 0 1 0 1  0 0 0 0.9 0"/>
      <feMerge><feMergeNode/><feMergeNode in="SourceGraphic"/></feMerge>
    </filter>
  </defs>
  <rect x="3" y="3" width="58" height="58" rx="14" fill="#02091d"/>
  <rect x="5" y="5" width="54" height="54" rx="12" fill="url(#bg)"/>
  <rect x="5.5" y="5.5" width="53" height="53" rx="11.5" stroke="#b9ddff" stroke-width="3"/>
  <rect x="8" y="8" width="48" height="48" rx="9" stroke="#e3f1ff" stroke-opacity="0.34" stroke-width="1"/>
  <g opacity="0.18" stroke="#dceeff" stroke-width="1">
    <path d="M13 48H52"/><path d="M15 38H51"/><path d="M19 18V52"/><path d="M32 13V52"/><path d="M44 17V52"/>
  </g>
  <g filter="url(#shadow)">
    <path d="M31.8 10.8L47.4 19.7V37.2L31.8 46.3L16.2 37.2V19.7L31.8 10.8Z" fill="url(#cube)" stroke="#eff8ff" stroke-width="1.35"/>
    <path d="M31.8 10.8V27.4L16.2 19.7L31.8 10.8Z" fill="#e2f2ff" fill-opacity="0.72"/>
    <path d="M31.8 10.8L47.4 19.7L31.8 27.4V10.8Z" fill="#66afff" fill-opacity="0.76"/>
    <path d="M16.2 19.7L31.8 27.4V46.3L16.2 37.2V19.7Z" fill="#13539d" fill-opacity="0.63"/>
    <path d="M47.4 19.7L31.8 27.4V46.3L47.4 37.2V19.7Z" fill="url(#cubeSide)" fill-opacity="0.78"/>
    <path d="M16.2 19.7L31.8 27.4L47.4 19.7M31.8 10.8V46.3M16.2 37.2L31.8 27.4L47.4 37.2" stroke="#f7fcff" stroke-opacity="0.66" stroke-width="1"/>
  </g>
  <g filter="url(#glow)" stroke-linecap="round" stroke-linejoin="round">
    <path d="M16.7 50.2L52.2 50.2" stroke="#ffffff" stroke-width="2.35"/>
    <path d="M16.7 50.2L16.7 17.8" stroke="#ffffff" stroke-width="2.35"/>
    <path d="M16.7 50.2L45.6 27.3" stroke="#ffffff" stroke-width="2.35"/>
    <path d="M48.8 47.4L52.2 50.2L48.8 53M14.1 20.7L16.7 17.8L19.4 20.7M41.5 27.2L45.8 27.2L44.7 31.3" stroke="#ffffff" stroke-width="2.25"/>
    <path d="M23 44.9L42.4 32.1" stroke="#ffffff" stroke-width="3.35"/>
    <path d="M23 44.9L42.4 32.1" stroke="#62b2ff" stroke-width="1.2"/>
    <path d="M38.6 32.2L42.6 31.9L41.2 35.7" stroke="#ffffff" stroke-width="2.35"/>
  </g>
  <g fill="#ffffff" stroke="#0a3a88" stroke-width="0.7">
    <circle cx="23" cy="44.9" r="2.15"/><circle cx="42.4" cy="32.1" r="2.15"/>
  </g>
  <g opacity="0.8" stroke="#eef7ff" stroke-width="1.1" stroke-linecap="round">
    <path d="M49 15.3L53.5 19.8"/><path d="M53.5 15.3L49 19.8"/>
    <path d="M11.6 15.4C14.1 12.8 17.2 12.8 19.7 15.4"/>
  </g>
</svg>